<?xml version="1.0" encoding="utf-8"?>

<!DOCTYPE svg PUBLIC "-//W3C//DTD SVG 1.1//EN" "http://www.w3.org/Graphics/SVG/1.1/DTD/svg11.dtd">
<svg version="1.1" id="Layer_1" xmlns="http://www.w3.org/2000/svg" xmlns:xlink="http://www.w3.org/1999/xlink" x="0px" y="0px"
	 viewBox="0 0 2592 1461" enable-background="new 0 0 2592 1461" xml:space="preserve">
<g>
	<path d="M1,800c7.0787-1.0145,14.2012-1.798,21.2194-3.1308c4.1539-0.7889,7.4474-2.7218,8.6847-7.6797
		c1.6928-6.7833,8.3756-12.3602,15.102-11.369c3.1465,0.4637,6.1643,0.0405,8.7755,0.4839
		c6.1355,1.0421,12.1094-1.2291,18.0659,0.3151c4.886,1.2667,8.2327-1.1528,10.7275-4.9995
		c0.8225-1.2682,1.6497-0.7866,2.5562-0.5621c2.3205,0.5745-0.0475,1.2355,0.0213,1.8497c0.3278,2.9281,2.8136,2.2143,4.1493,1.8228
		c7.7549-2.2731,15.3488,0.4188,23.0007,0.59c5.5327,0.1238,10.5718,2.8716,15.8084,4.9012
		c12.5774,4.8744,23.9832,13.1943,38.1586,13.9037c4.5097,0.2256,8.8353,0.539,13.343-0.4218
		c6.0902-1.2982,12.2505-0.6661,18.1841,1.3397c1.3166,0.4451,3.4473,0.7899,2.9965,2.659
		c-0.4191,1.7379-2.4877,1.1683-3.9303,1.2979c-13.1697,1.1833-26.1946-1.093-39.2918-1.6409
		c-1.9953-0.0835-3.9934-0.2365-5.987-0.1961c-4.4312,0.0897-7.4564,1.3081-7.9591,6.7401c-0.438,4.7337-1.638,9.661-3.6892,13.9324
		c-6.4813,13.4969-6.9681,28.1324-9.3439,42.4665c-0.7959,4.8016-0.2584,10.1749-3.9084,14.5751
		c-1.4299,1.7239,0.4164,4.7581,0.9587,7.1611c0.9045,4.0079,1.9992,7.8627-3.6119,9.6372
		c-2.8604,0.9045-0.9501,5.5298-3.8072,6.4783c-2.2656,0.7521-3.5953-4.4734-6.7759-1.5891
		c-0.6478,0.5875-1.8532,0.5074-2.3051-0.1505c-2.6623-3.8768-8.0427-4.5485-10.5186-7.9016
		c-7.0304-9.5212-15.6465-18.1001-19.1971-29.9236c-1.4463-4.8163-2.7696-9.7528-2.8456-14.6484
		c-0.1189-7.6546-1.778-14.7758-4.7029-21.7123c-2.0565-4.8772-3.4393-9.7419,0.8338-15.7778
		c-4.7072,2.0309-6.1781,5.362-7.8914,7.7315c-3.6503,5.0485-10.0218,8.8698-8.803,16.727
		c0.3065,1.9761-1.0172,4.6669-3.3206,5.0833c-2.6977,0.4877-2.4942-2.4907-3.3792-4.1129
		c-0.6325-1.1593-1.3401-2.2777-2.2242-3.7685c-1.5039,2.4747-1.2583,5.3464-2.947,7.3976
		c-0.9548,1.1597-1.7083,2.6155-3.5314,2.267c-1.6735-0.3198-1.7689-1.8309-1.971-3.1223
		c-0.5841-3.7343-1.0553-7.3524-5.4557-2.3044c-0.9127,1.0471-2.6141,1.7344-4.1079,0.9954
		c-1.2447-0.6158-0.8812-2.1071-0.801-3.1822c0.3054-4.0893-0.1454-6.9769-5.4687-4.9065c-1.6238,0.6315-3.7893,0.462-2.6763-2.3015
		c1.5831-3.9312-0.3042-5.149-4.4089-5.1671c3.0968-4.1046,3.2788-8.718,5.0152-12.7984c1.2972-3.048-0.0068-3.9324-3.0184-3.4305
		C13.9535,804.686,7.6233,807.3677,1,809C1,806,1,803,1,800z M61.41,781.7356c0.1938,0.1472,0.4087,0.3271,0.6472,0.4668
		c0.0253,0.0148,0.2935-0.2424,0.2697-0.3118c-0.0877-0.2551-0.251-0.4842-0.386-0.7232
		C61.7633,781.3575,61.5857,781.5477,61.41,781.7356z"/>
	<path d="M2593,118c-3.9421,1.4739-8.1768,1.1414-11.7739-0.1471c-9.4045-3.369-18.8359-2.1579-28.1758-0.8848
		c-19.7603,2.6935-39.6216,4.7352-58.9631,10.1873c-7.2622,2.0471-15.1313,1.9475-22.7268,2.801
		c-1.2039,0.1353-2.3713,0.0591-2.7344-1.4702c-0.3586-1.5095,0.6353-2.0856,1.7449-2.5931
		c5.261-2.407,10.2371-5.2129,14.9041-8.7245c3.9307-2.9576,8.864-2.4422,12.8691-0.3232c2.2512,1.191,3.8669,1.0077,5.9229,0.6511
		c8.0293-1.3926,16.1179-2.4944,24.0889-4.1612c10.582-2.2129,18.4258-8.6943,25.3162-16.7595
		c5.3899-6.3092,6.3992-9.1309,4.2744-17.3896c-2.2847,0.5848-2.3044,3.0709-3.6956,4.3613
		c-0.9736,0.9032-1.9236,2.1093-3.405,1.6785c-1.6394-0.4768-1.4692-2.0114-1.4016-3.3425
		c0.0847-1.6637,0.0977-3.3461,0.3726-4.9815c0.4246-2.5232,0.4934-4.4322-1.8137-6.6128
		c-2.3264-2.1986-1.1577-5.9997-1.2036-9.0991c-0.0439-2.9953,0.1736-5.7855-1.8362-8.5062
		c-2.5303-3.4254,1.4585-6.5642,1.3184-10.2097c-0.0781-2.0362,4.2554-1.505,6.2058-1.0005
		c7.5459,1.9514,15.2546,3.175,22.7219,5.5386c5.8333,1.8463,11.9822,2.6955,17.9907,3.9879C2593,73.3333,2593,95.6667,2593,118z"/>
	<path d="M1505.4418,949.3551c4.895,0.1996,7.3046-4.0782,10.9457-6.134c2.0079-1.1335,3.7513-2.7278,5.6589-4.0494
		c1.0922-0.7566,2.5037-1.7205,3.5416-0.401c0.9574,1.2172-0.0905,2.5361-1.0167,3.5004
		c-4.0413,4.2073-8.6991,7.697-13.2721,11.2839c-0.618,0.4847-1.4723,0.8324-1.2485,2.2827
		c5.8842-1.4673,10.6702-5.1681,16.0699-7.4661c2.6771-1.1393,6.7493-4.1684,7.9169-1.8683
		c1.3722,2.7029-3.4637,3.8305-5.8228,5.288c-4.3563,2.6915-8.8766,5.1178-13.2225,8.2009
		c8.0536-0.4906,15.6638-3.7398,23.8855-3.8154c-3.5135,3.8981-9.405,2.5898-13.2007,5.7916
		c0.0977,0.2679,0.1201,0.6876,0.3057,0.7802c2.344,1.1695,6.1455-1.6,7.1635,1.3242c0.8293,2.3826-3.3424,3.1046-4.6646,5.207
		c-2.827,4.4955-5.411,8.7575-5.4124,14.6008c-0.002,8.7147-2.1255,17.126-7.8438,24.2001
		c-0.8134,1.0062-1.1133,2.4152-1.8701,3.4822c-1.9663,2.7712-0.7142,4.2632,2.0582,4.1638
		c5.0399-0.1807,8.6985,2.6271,12.8184,4.7509c5.9077,3.0454,12.4905,2.5287,18.474,0.7426
		c7.2849-2.1747,13.7037-0.6633,20.2158,2.1089c0.9142,0.3892,1.9406,0.925,1.5822,2.1649
		c-0.3553,1.2295-1.4441,2.052-2.6359,1.9424c-5.1875-0.4773-10.3086,1.0543-15.4324,0.6124
		c-9.4926-0.8184-18.9937-0.5724-28.4589-0.222c-7.7487,0.2869-15.1831,2.5524-22.7001,4.8093
		c-17.0011,5.1046-34.2719,9.8833-52.3798,5.5173c-5.1718-1.2468-10.3635-2.4158-15.5652-3.5319
		c-9.5741-2.0543-18.3733,1.8906-27.4706,3.5964c-19.4315,3.6436-38.6693,8.348-58.4377,10.6292
		c-0.6798-2.9442,0.7811-4.562,3.4114-5.7372c3.3271-1.4866,6.1113-3.6819,8.8738-6.1724
		c4.5973-4.1444,10.8629-3.8777,16.1953-2.4475c9.7341,2.6106,18.7968,0.6974,27.8184-2.254
		c6.0441-1.9773,11.4852-5.3563,15.8291-10.0872c4.6547-5.0694,11.2826-7.6326,15.7751-12.9317
		c1.7006-2.0059,2.929-3.9437,3.2181-6.5238c1.8381-16.4019-1.1254-31.846-9.5754-46.0605
		c-2.4478-4.1176-3.6045-8.2741-2.3616-12.8354c1.0358-3.8005,0.9006-7.4683,0.407-11.3266
		c-2.1405-16.7324,2.4674-32.2919,8.8148-47.4708c0.6918-1.6541,2.4653-5.0674,3.3237-3.968
		c2.173,2.7837,8.3865,1.166,7.4122,7.3134c-0.7328,4.6238-1.944,9.0778-3.391,14.8163c2.8583-5.1058,5.0822-9.1616,7.3988-13.1636
		c0.6519-1.126,1.4482-2.5435,3.0063-2.2091c1.7148,0.368,1.986,1.9993,2.2754,3.5187c0.6798,3.5681-1.1007,6.4474-2.4701,9.4744
		c-1.0094,2.2314-1.838,4.5447-2.076,7.2658c2.6974-3.2082,5.3536-6.4523,8.1118-9.6072c1.152-1.3175,2.3425-3.3807,4.4614-2.0964
		c2.3489,1.4236,1.8051,3.7941,0.7374,5.7739c-1.6383,3.0385-3.5369,5.9366-5.6342,9.4058
		c4.5691-0.5316,7.1575-4.1123,10.9111-5.0944c0.9803-0.2564,1.9489-0.7452,2.8103,0.0129c0.8604,0.7572,0.8999,1.9789,0.322,2.7604
		c-3.2688,4.4219-0.9198,8.9695,0.7631,12.5823c5.2031,11.1705,8.8114,23.1219,16.6595,33.0941
		c2.7688,3.5181,3.8551,2.3852,5.7506,0.1943c5.6619-6.5437,11.0853-13.3037,17.5879-19.0693
		c1.2003-1.0643,2.505-3.2214,4.0609-2.0768c1.9344,1.4232,0.0337,3.3969-0.8776,4.7231
		c-2.7216,3.9609-5.6587,7.7867-9.4919,10.7971c0.0616,0.156,0.1143,0.2856,0.1428,0.4204
		c0.0413,0.1951,0.0651,0.3939,0.0963,0.5911C1505.6276,950.0912,1505.5347,949.7232,1505.4418,949.3551z"/>
	<path d="M384.6049,927.6027c3.312,0.0017,4.869-2.543,6.6837-4.6643c2.9211-3.4147,5.733-6.9241,8.7013-10.2964
		c0.7948-0.903,1.8401-2.5153,3.219-1.4735c1.2514,0.9455,0.436,2.5994-0.2735,3.6493c-2.9712,4.3968-5.5003,9.1398-9.5842,12.7028
		c-0.5919,0.5164-1.3755,0.9614-1.1,2.3806c7.5939-1.9251,12.5871-8.7284,21.0862-11.52
		c-3.4466,6.6959-10.005,8.1742-13.9711,13.1234c4.6598,0.8428,8.1985-2.1857,12.4218-2.1722
		c-0.2069,2.4767-3.2723,1.7167-3.6144,3.651c0.1964,0.2379,0.3882,0.6755,0.5866,0.6785c6.7892,0.103,7.4096,0.4346,4.2163,6.3022
		c-4.9463,9.0887-6.5766,18.9667-8.9536,28.7646c-1.2833,5.2899-4.1622,10.1921-7.6671,14.478
		c-2.3419,2.8637-1.0368,4.1947,1.6541,5.0461c2.7094,0.8573,5.5389,1.0616,8.3977,0.9323
		c3.9283-0.1777,7.8115,0.3357,10.3929,3.609c4.295,5.4459,10.204,6.0303,16.4773,6.6852
		c7.2159,0.7532,14.2411-1.0427,21.3855-0.7017c4.3139,0.206,8.5211,0.5452,12.7579,4.0692
		c-6.9857,1.1672-13.3405,2.9967-19.4312,2.0434c-30.0049-4.6962-59.785-1.7963-89.593,1.6271
		c-8.7245,1.002-17.2462,0.4733-25.5599-2.7593c-8.3443-3.2444-16.6154-2.3596-24.6714,1.2728
		c-5.7448,2.5901-11.7839,3.5679-18.0332,3.1532c-18.9197-1.2552-37.5443,1.0377-56.079,4.5176
		c-0.7686,0.1443-1.5758,0.0835-3.2114,0.1556c5.8924-4.2266,12.4362-6.0313,16.4917-11.3839
		c0.6645-0.877,1.7009-0.7723,2.7567-0.6105c12.6877,1.944,25.4697-0.294,38.2698,1.1066
		c8.1363,0.8903,15.422-3.6431,20.2504-10.7787c3.2911-4.8638,6.9365-9.3487,11.7285-12.8066
		c3.8042-2.7451,4.8098-6.6046,4.3535-11.0017c-1.3621-13.1271-3.2392-26.1334-10.6141-37.5421
		c-3.1214-4.8287-3.2963-9.9688-2.0706-15.295c0.4197-1.8237,0.6401-3.5658,0.3159-5.4181
		c-2.8616-16.3489,0.8985-32.0639,4.684-47.7618c0.3433-1.4237,1.2148-2.7238,1.8727-4.0657
		c0.197-0.4017,9.1968-1.8049,9.4521-1.4765c0.9861,1.2686,0.864,2.8256,1.0465,4.2974c0.2768,2.2324-0.8183,4.5829,0.4676,6.769
		c0.411-0.0979,0.8109-0.0695,0.9859-0.2542c1.4803-1.5613,1.6875-5.276,4.696-4.1737c2.8628,1.0488,1.6896,4.2004,1.6271,6.6207
		c-0.0462,1.7861-1.0928,3.5047-0.3991,5.4448c2.092-0.5815,2.5434-2.563,3.7108-3.8713c0.8292-0.9293,1.6443-2.3958,3.2499-1.6527
		c1.3705,0.6343,1.69,2.0079,1.5079,3.4153c-0.2127,1.6434-0.4403,3.2977-0.8499,4.899c-0.4055,1.5853-0.8803,3.121-0.4284,5.4118
		c2.0527-1.5974,3.6657-2.9291,5.3641-4.1412c0.8234-0.5876,1.8461-0.8599,2.8242-0.3007c0.9652,0.5517,1.5533,1.5225,1.0049,2.5118
		c-2.8824,5.1998,1.0306,9.0699,3.0304,12.8611c3.0483,5.7789,6.0121,11.6017,7.5277,17.8661
		c1.7157,7.0914,7.518,12.0613,8.9047,19.3047c0.6007,3.1379,2.9958,2.394,4.6332,0.0782
		c3.8524-5.4492,6.8431-11.4021,10.1816-17.1539c1.1338-1.9532,2.1411-5.846,4.6968-4.7187
		c2.4185,1.0667-0.0685,4.1985-0.7808,6.1768c-1.6195,4.4976-3.1617,9.1372-6.8206,12.556
		c0.0608,0.0472,0.1141,0.1008,0.1674,0.1544C384.6555,927.8168,384.6302,927.7097,384.6049,927.6027z M389.9309,962.212
		c0.816-4.769-1.4303-7.8999-4.8014-10.2611c-1.0428-0.7304-2.6968-1.9785-4.0664-0.8386
		c-1.3012,1.0828-0.6762,2.9002-0.1947,4.2114c1.8981,5.169,3.05,10.445,3.0651,15.964c0.0027,0.9642,0.012,2.2567,1.3443,2.1981
		c1.1403-0.0502,2.2315-0.7594,2.6584-1.9651C389.0362,968.4144,390.5287,965.3816,389.9309,962.212z"/>
	<path d="M959.6124,932.373c1.1653-0.1141,1.6606-0.973,2.1028-1.8911c0.6866-1.4258,0.9323-3.7367,3.1788-2.9865
		c2.0939,0.6992,2.8616,2.8365,2.4904,4.9495c-0.5127,2.9181-1.5887,5.7408-1.4407,9.1989
		c2.4219-0.9487,3.0472-3.1191,4.2485-4.7313c0.9971-1.3381,1.9967-3.1018,3.9527-2.0363c1.7212,0.9377,1.5193,2.8253,0.9996,4.476
		c-0.6772,2.1516-1.4835,4.2625-2.2789,6.5172c3.6738,0.835,5.8557-3.6268,8.5715-2.2484c2.2905,1.1626,0.5698,4.9321,2.742,7.2603
		c4.7661,5.1085,8.6026,10.9691,11.2031,17.5492c0.3604,0.9119,0.9752,1.7491,1.5861,2.532
		c5.5437,7.1038,7.9667,7.0989,14.8329,1.1453c7.6132-6.6013,11.7769-15.6356,17.4816-23.5807
		c1.5092-2.1017,2.6979-4.491,5.6508-6.0497c0.2325,5.6364-4.0656,8.9701-4.5052,14.0888
		c3.772-4.3068,7.5439-8.6135,11.3159-12.9202c0.3915,0.2755,0.783,0.551,1.1744,0.8265
		c-0.4196,6.9698-7.2949,10.6524-10.0967,17.8637c7.1877-3.4496,11.8621-8.7676,18.2104-11.5798
		c-2.3534,6.6526-9.4337,8.996-14.3562,15.1573c6.1741-1.8578,11.1021-3.3406,16.5154-4.9694
		c-0.4644,2.7939-3.7339,2.1309-3.8984,4.367c0.1777,0.1934,0.3696,0.5999,0.5974,0.621c6.4358,0.5977,6.3684,0.5533,3.28,6.0675
		c-3.2548,5.8109-6.0116,11.8375-7.8511,18.2833c-2.5448,8.9179-6.5297,17.1203-13.1989,23.7303
		c-2.1757,2.1564-1.6611,3.4645,0.8005,4.3284c13.2783,4.6603,26.2773,10.2267,40.8961,9.6693
		c5.1438-0.1962,9.3579-3.2881,14.538-3.105c3.0103,0.1064,5.938-0.0127,8.8102,1.0355c1.179,0.4302,2.9602,0.1417,2.825,2.0859
		c-0.1189,1.7111-1.3674,2.4862-3.0045,2.8418c-6.0408,1.3123-12.1165,2.1703-18.314,1.5958
		c-5.6384-0.5227-11.2698-1.1255-16.9105-1.6218c-1.4847-0.1305-3.1523-0.4163-4.464,0.0834
		c-8.738,3.3281-17.7805,1.4451-26.684,1.9813c-8.4295,0.5077-16.7805,2.3094-25.1681,3.5286
		c-10.0109,1.4553-20.0034,3.9558-30.1556,1.2152c-5.2537-1.4183-10.1002-3.9838-15.7717-4.3387
		c-3.8168-0.2389-7.6592-0.7144-11.4354-0.3682c-14.7435,1.3512-29.7825-1.4722-44.2632,2.2657
		c-9.6525,2.4917-19.5245,1.8284-29.1454,3.7257c-0.8026,0.1583-1.6558,0.1587-2.3361-0.6031
		c-0.2029-1.494,1.061-1.8754,2.0178-2.4287c4.8607-2.8121,9.8742-5.2439,14.2257-9.0217
		c4.3259-3.7556,10.1463-2.4192,14.9312-1.254c16.0686,3.9128,31.0134,3.3485,44.2161-7.9733
		c2.39-2.0494,4.7478-4.3764,7.5407-5.6631c5.0233-2.3143,5.8459-6.0233,4.5591-10.6685
		c-2.384-8.6055-5.6334-16.7886-12.9352-22.5746c-2.5118-1.9903-3.9456-4.3425-4.027-7.6256
		c-0.3272-13.2084,1.4056-26.2231,3.6454-39.1815c0.5068-2.9323,1.463-5.8192,2.5129-8.614
		c0.705-1.8766,1.5159-4.7947,4.2455-1.4888c0.105,0.1272,0.2166,0.3363,0.34,0.3478c1.8085,0.1692,3.9825-2.8254,5.3923,0.4118
		c1.3658,3.1365,0.9954,6.5023,0.5884,9.8215c0.0507,0.2346,0.1021,0.4597,0.1535,0.6846
		C959.7004,932.8613,959.6564,932.6172,959.6124,932.373z M1024.1803,994.6393c0.4496-6.6023-6.462-12.4989-12.2687-11.0621
		c-2.0092,0.4973-2.2056,2.0633-1.2971,3.4886c2.5822,4.0507,5.1686,8.1271,8.1345,11.8934
		c1.6332,2.0739,3.6869,2.2651,4.4824-1.0898C1023.5358,996.5854,1023.9738,995.3329,1024.1803,994.6393z M1021.4802,1003.0706
		c-0.4281,0.4634-0.9008,0.7506-0.9326,1.0804c-0.0256,0.265,0.5152,0.8434,0.7467,0.8148c0.3602-0.0446,0.8397-0.435,0.9446-0.778
		C1022.3101,1003.955,1021.827,1003.5524,1021.4802,1003.0706z"/>
	<path d="M2326.8813,1198.9266c6.1309-7.2161,12.1843-13.9637,17.7798-21.0719c3.2302-4.1031,7.5491-6.1774,12.1262-5.6683
		c6.167,0.6859,12.1997-0.5518,18.4893,0.2457c7.5032,0.9512,15.5957,0.6901,23.282-0.1023
		c11.1848-1.153,21.4116,2.161,31.8408,4.8021c2.8513,0.722,5.7112,2.136,7.7329,4.4313c4.969,5.642,11.5562,6.7858,18.5056,6.9518
		c2.728,0.0653,5.4116,0.2108,7.5142,2.1194c8.5784,7.7863,18.8069,6.0594,28.8223,4.8768
		c6.002-0.7085,11.9023-1.4794,17.7451,0.641c1.5813,0.5737,3.4739,1.3711,3.2295,3.2749
		c-0.2598,2.0259-2.3442,1.1178-3.7078,1.4236c-9.7451,2.1843-19.5603,1.4083-29.3457,0.6511
		c-5.1667-0.3998-9.5681,2.4781-14.571,2.7609c-2.0774,0.1173-1.3806,2.2714-1.0454,3.6808
		c1.7212,7.2345-0.6448,13.7323-3.354,20.2606c-1.9612,4.7266-3.2739,9.4343-2.179,14.9158
		c1.6836,8.4299-0.6042,16.7344-2.5874,24.9617c-1.4688,6.0936-4.4238,11.8478-2.7781,18.6058
		c1.2488,5.1282-2.0701,12.4918-6.1868,12.9688c-2.4075,0.2789-5.5942,1.6492-8.8-0.943
		c-10.4839-8.4772-14.3069-20.8378-19.5107-32.2394c-4.6941-10.2837-6.8494-21.351-7.3525-32.9165
		c-0.293-6.7361-3.7661-13.3511-5.949-19.9741c-0.4939-1.4983-1.936-2.1471-3.5769-2.3094
		c-7.3853-0.7316-14.2212-3.3278-20.9263-6.3212c-2.9573-1.3203-6.0955-1.8042-9.2556-1.7168
		c-4.8101,0.1332-8.219,3.2321-9.2686,8.016c-0.1785,0.813-0.2258,1.6771-0.5374,2.434c-0.6941,1.6865-1.4622,3.8821-3.3398,3.9845
		c-2.3093,0.1257-2.3303-2.3315-2.8533-4.0464c-0.3247-1.0647-0.124-2.3735-1.5012-3.2762
		c-1.1182,2.2047-2.1235,4.4366-3.3638,6.5293c-0.6235,1.0515-1.1938,2.6753-2.9216,2.1831
		c-1.5234-0.4341-1.6433-1.9371-1.8594-3.2521c-0.2612-1.5881,0.3958-3.3317-0.8154-4.83
		c-1.9116-0.0635-2.2249,1.7284-3.1853,2.7363c-2.0947,2.1976-3.9836,3.7826-6.0378-0.2125
		c-1.7944-3.4889-4.7576-1.5171-6.9729-0.6542c-5.5952,2.1801-11.3003,3.8284-17.2166,4.7604
		c-1.4697,0.2316-3.0054,0.448-4.4626,0.2727c-2.9731-0.3577-3.9878-2.8907-2.2456-4.5968
		c4.4568-4.365,8.4246-10.1584,16.1267-8.7744c1.1389,0.2047,2.394,0.4868,3.4609,0.212c1.9819-0.5107,4.9102-0.264,5.2493-2.9006
		C2331.3943,1199.3654,2328.1267,1200.3635,2326.8813,1198.9266z"/>
	<path d="M1379.387,360.564c7.5596,3.6419,15.5739,1.8901,23.4395,2.0142c13.0627,0.2061,26.1532-2.3975,39.1936,0.4328
		c3.1489,0.6834,6.1632,1.5512,8.3013,4.1451c5.7222,6.9416,14.618,6.5056,22.0427,9.4741
		c1.3622,0.5446,3.1809,0.3915,3.9963,1.7462c2.6931,4.4738,7.0328,4.122,11.3943,4.597c9.2361,1.006,18.1113-2.091,27.2499-1.8729
		c3.3296,0.0795,6.5817,0.4275,10.1923,1.364c-1.8683,2.8531-5.2836,1.0494-7.4196,3.1732c1.8229,2.6497,5.2213,2.205,8.1615,3.8615
		c-9.6718,2.4553-18.7926,2.1095-28.0013,1.0121c-7.5964-0.9052-15.2478-1.342-22.8683-2.0568
		c-3.0316-0.2844-4.9219,0.6133-6.1224,3.7187c-1.7888,4.6265-4.1116,9.0503-6.2928,13.5184
		c-0.4783,0.9796-0.7046,1.9851-0.328,2.8738c3.4126,8.054,0.2164,16.3976,1.1512,24.5539
		c0.7905,6.8974-2.3738,13.9732,0.9208,20.7781c0.2761,0.5699,0.2695,1.3076,0.2799,1.9692c0.0261,1.6463,0.334,3.6042-1.5416,4.365
		c-1.9814,0.8037-1.6442-2.255-3.6382-2.3929c-0.2655,1.9882-0.3412,4.0865-0.8746,6.0611c-0.4209,1.5577,0.6724,5.8687-3.64,2.034
		c-1.981-1.7615-1.8486,2.7138-3.9166,3.3341c-1.4753-1.0002-2.2837-3.5658-5.1205-2.6063
		c-1.0577,0.3577-1.7677-1.3018-2.2152-2.3723c-4.8905-11.6965-13.4758-21.2635-18.6442-32.8864
		c-3.1224-7.0217-6.2716-13.9053-7.735-21.4493c-0.734-3.7839-1.9089-7.3453-3.4222-10.9066
		c-1.8162-4.2737-5.1571-5.511-9.1307-5.6147c-3.7048-0.0968-3.5381,3.6954-5.1923,5.7184
		c-2.9596,3.6198-1.6293,9.3082-6.3888,12.0197c-1.5763,0.898-0.037,3.1155-0.2172,4.7236
		c-0.0736,0.6572,0.0352,1.3328,0.001,1.9969c-0.1276,2.4735,0.3224,5.8987-2.347,6.5704c-3.1002,0.7802-2.4691-3.1929-3.764-4.8723
		c-0.4774-0.6192-0.7583-1.3899-1.5537-2.8957c-0.8351,4.496-0.6737,8.357-2.5117,11.7136
		c-0.4561,0.833-0.6992,2.1525-1.9451,1.8383c-0.5685-0.1434-1.0732-1.1607-1.3119-1.8795
		c-0.8773-2.6436-1.631-5.3282-2.7228-8.9701c-1.3003,3.3861-2.2169,5.9021-3.239,8.3745
		c-0.4363,1.0556-0.9548,2.3033-2.4237,2.0954c-1.4774-0.2091-1.4152-1.6305-1.7821-2.6943
		c-0.6866-1.991,0.1152-4.3506-1.4078-6.1372c-0.4189,0.0775-0.8193,0.0296-1.0167,0.2073
		c-1.5242,1.3727-2.1516,4.6616-4.6229,3.8218c-2.7391-0.9308-1.4077-4.0679-1.5253-6.2456
		c-0.1124-2.0798-0.3157-3.5536-2.3539-4.9749c-3.2651-2.2768-2.5804-6.1994-2.5414-9.6363c0.1105-9.747,0.137-9.7916-9.4287-7.319
		c-9.8169,2.5375-19.3069,6.2706-29.5153,7.4081c-3.769,0.42-7.6506-0.5484-11.3491,1.0676
		c-1.2471,0.5449-2.0885-0.8573-2.5833-1.8824c-0.6359-1.3175,0.5221-1.7963,1.4344-2.1007
		c4.5261-1.5104,8.0365-4.4791,11.5437-7.5709c3.0541-2.6924,7.2874-2.8079,10.4546-1.45
		c6.5691,2.8165,12.3649-0.2921,18.4137-1.1577c12.3634-1.7692,15.465-7.3437,16.7993-19.6425
		c0.7574-6.9814,3.1077-9.5183,10.7499-10.5782c2.3004-0.319,4.6479-0.2983,6.9739-0.4332L1379.387,360.564z M1504.1111,387.6888
		c-4.0914-2.0045-12.2843-2.1534-16.152-0.5098C1492.9674,387.5889,1497.9637,388.6592,1504.1111,387.6888z"/>
	<path d="M2120.7883,1180.6548c-2.3137-1.9113-5.0754-2.0818-7.9043-2.104c-2.2527-0.0178-3.2847-0.9995-1.783-3.1008
		c5.8027-8.1196,6.4128-17.674,7.6104-27.0726c0.1475-1.1565,0.177-2.3337,0.4014-3.4738c0.562-2.8569-0.0076-7.9268,2.53-7.8544
		c3.147,0.0897,2.6382,4.9711,3.0269,7.9312c0.5476,4.1735-0.3848,8.2866-1.2104,12.3732
		c-0.3503,1.7327-1.2126,3.4673,0.0168,5.4792c3.1665-1.7614,3.6702-5.1028,4.7769-7.905c1.5247-3.8604,2.4824-7.942,3.9331-11.8357
		c0.4561-1.2238,0.3843-3.5132,2.4209-3.2498c2.0283,0.2625,2.0635,2.3696,2.2666,3.9933
		c0.7893,6.3013-1.5073,11.7571-4.6792,16.9941c-0.9763,1.6121-2.7905,2.9174-2.2302,5.8256
		c4.9812-2.022,8.1086-5.808,11.2253-9.556c1.271-1.5287,2.2788-3.276,3.4136-4.9186c0.9072-1.3132,1.6641-3.5104,3.6772-2.198
		c1.6079,1.0481,0.8416,3.0896,0.2166,4.6122c-1.5776,3.8431-5.0503,6.1169-7.728,9.0536
		c-0.8623,0.9459-2.2805,1.9292-1.6658,3.3706c0.7219,1.6919,2.3306,0.5853,3.5542,0.5533
		c4.1406-0.108,8.2813-0.2363,12.4192-0.4213c3.3069-0.1478,4.0889,1.104,2.939,4.244
		c-3.8892,10.6201-9.8445,19.3208-20.927,23.4806c-2.8418,1.0668-3.1455,2.2764-0.3789,3.8671
		c0.7188,0.4135,1.3582,1.3389,2.0554,1.3615c12.8418,0.4159,23.5906,10.0532,37.0342,8.2423
		c3.0974-0.4171,5.2019-2.8048,8.3577-2.7091c4.7544,0.1438,9.2266,0.8474,13.1755,3.8003
		c1.0747,0.8036,2.5435,1.1046,2.0095,2.8665c-0.481,1.5879-1.9199,1.4711-3.2258,1.7896
		c-10.3411,2.5222-20.4634,0.3287-30.6704-1.0889c-12.0537-1.6743-24.2344-1.8215-36.3796-2.2632
		c-6.8391-0.2487-12.8853,3.1233-19.3582,4.5604c-12.0786,2.6818-24.2039,4.8925-36.4006,0.6409
		c-4.0657-1.4172-8.0557-3.0507-12.0818-4.5817c-4.7612-1.8107-9.4199-1.7117-14.0035,0.6503
		c-10.484,5.4025-21.6008,5.5963-33.1001,4.7748c-12.1031-0.8646-24.1409,0.9635-36.0839,3.0671
		c-1.3389,0.2358-3.3313,1.5449-4.0331-0.1428c-0.7611-1.8303,1.3053-2.8241,2.7323-3.5964
		c4.0731-2.2047,7.6937-4.8168,11.1495-8.048c5.7146-5.3433,12.6646-3.1581,18.7338-0.3566
		c12.9711,5.9875,24.7061,5.2366,33.3921-3.3912c4.4548-4.425,7.8779-9.8014,12.9568-13.7468
		c2.5815-2.0056,1.0313-4.6406-1.0034-6.3923c-5.6158-4.835-11.863-8.6737-19.2296-10.0615
		c-4.5372-0.8547-8.2158-2.9476-12.0736-5.3945c-17.9395-11.3787-24.7954-28.6625-26.7787-48.6738
		c-0.2162-2.1812-1.2231-5.4709,1.1968-6.3641c2.6694-0.9852,5.5425,0.0745,7.9802,2.5354
		c5.6521,5.7058,11.0076,11.9138,18.8649,14.8801c0.6079,0.2295,1.3369,0.5608,1.6553,1.0675
		c2.5507,4.0574,4.9563,8.2622,10.9692,6.1898c0.223-0.0769,0.6854,0.182,0.8737,0.4155
		c6.511,8.0773,17.8473,8.3406,24.9608,15.3909c7.3076,7.2427,17.4883,10.8091,24.0852,18.951
		c1.1868,1.4648,2.8386,1.9777,4.7078,2.4667c6.501,1.7017,12.7546,3.97,18.7566,7.236c2.9539,1.6072,7.1604,1.1206,10.8049,1.1637
		c1.9395,0.0229,1.9385-1.9287,1.9756-3.446c1.8411,1.6686,3.7024,3.3751,6.4263,2.1113c0.5645-0.2618,0.6431-1.2957,0.0889-1.7238
		C2125.1851,1179.3438,2123.0337,1178.2843,2120.7883,1180.6548z"/>
	<path d="M1785.3787,309.1345c0.132,3.7413,2.7366,6.3974,3.198,9.9183c0.2023,1.5439,0.3815,3.1408-1.0632,4.0897
		c-1.843,1.2107-2.6503-0.6529-3.6201-1.6252c-1.6752-1.6795-2.7701-3.7324-6.0338-2.286c-1.6449,0.729-3.3492-1.7593-4.6849-3.2182
		c-2.3649-2.5829-4.4965-5.3034-8.6234-5.1263c-1.8666,0.0801-3.2764-1.4315-4.5018-2.8657
		c-2.3776-2.7825-4.5944-4.9331-9.1069-4.6387c-3.8521,0.2514-5.5463-4.3444-7.3987-7.3403
		c-1.4432-2.3343-2.2472-5.2372-2.6743-7.99c-0.8646-5.5739-2.635-10.575-6.6228-14.7287
		c-3.3479-3.4874-2.2751-7.7289-1.6147-11.8489c1.1554-7.2077,0.9921-6.7236-5.8505-8.9441
		c-13.351-4.3326-26.8158-0.9645-40.2108-1.3901c-12.8289-0.4076-25.5878-0.0562-38.2947,2.191
		c-4.3577,0.7707-8.9539,0.5581-13.4131-0.4675c-4.4901-1.0327-8.7953,1.3913-13.7391,0.1095
		c3.3866-1.624,6.7367-3.3309,10.1721-4.8441c2.4407-1.0751,4.6915-2.2152,6.7063-4.1241
		c4.3307-4.1036,14.9008-4.3942,19.957-0.9392c0.6647,0.4542,1.4375,0.9031,2.2113,1.0225
		c18.6094,2.8716,35.0887-0.7022,47.736-15.8459c1.309-1.5673,1.2601-2.5188-0.7804-3.29
		c-5.9672-2.2552-11.401,0.6381-12.884,6.9222c-0.2676,1.1333-0.506,2.2936-0.9512,3.3607
		c-0.9933,2.3812-2.3082,2.7241-3.8365,0.3928c-0.3652-0.5571-0.7234-1.1192-1.0701-1.688
		c-3.5872-5.8853-3.5569-5.8443-9.1146-1.9049c-1.5137,1.0729-2.9224,2.7962-5.2754,1.1985
		c-1.3085-0.8885-2.9867-0.2892-4.3066,0.4306c-6.5502,3.5716-12.2256,1.6485-17.3618-2.8386
		c-4.0558-3.5428-7.0819-7.9408-9.4143-12.7883c-0.6356-1.321-1.599-2.9921-0.1511-4.1268
		c1.7759-1.3918,3.2697,0.2464,4.1792,1.4652c4.3612,5.8441,10.4979,9.055,16.9329,11.8832
		c4.8951,2.1514,9.3816,1.4463,14.3647-0.6269c14.0233-5.8343,28.5801-9.0158,44.0186-8.6606
		c12.4512,0.2865,24.9336-0.9132,37.4167-0.0128c5.4341,0.392,9.928,1.9295,14.2932,5.7963
		c5.6683,5.0208,13.6158,4.7971,20.814,5.3172c5.6746,0.41,11.3059,0.0779,16.2021,3.6934
		c1.4561,1.0752,2.3909,2.3997,2.4708,4.1267c0.1138,2.4663-2.5425,0.7465-3.8464,2.8029
		c10.4353,0.5772,20.1254,4.0855,30.3574,0.0543c6.2968-2.4808,12.6666-0.1407,18.7103,2.2707
		c0.7036,0.2808,0.8954,1.0147,0.689,1.6773c-0.4495,1.4433-1.7362,1.2914-2.8885,1.3777
		c-9.3096,0.6973-18.566,0.4412-27.8876-0.4215c-9.9048-0.9167-19.829-2.2605-29.871-1.2772
		c-2.7418,0.2685-3.5446,0.7841-3.6685,3.613c-0.3629,8.2788-1.3009,16.5172-2.2644,24.7586
		c-0.6293,5.3838,0.3616,10.9369,0.1462,16.3952c-0.1943,4.9317-0.0414,9.9162-1.2556,14.7925
		c-0.6609,2.6541,1.8032,4.1149,2.9388,6.0098c1.5737,2.626,3.095,5.1879,2.8077,8.3369c-0.2017,2.2125-1.1855,3.2034-3.1233,1.189
		C1791.3131,315.3698,1788.3502,312.248,1785.3787,309.1345z"/>
	<path d="M776.1793,579.3973c0.174-2.1325,1.8891-2.6761,3.2206-3.5385c4.7213-3.0579,9.6415-5.6682,13.7001-9.8463
		c5.2119-5.3651,12.2374-3.2155,18.5464-2.5909c17.4266,1.7252,33.812-0.1631,47.647-12.1945
		c2.2566-1.9623,4.3502-4.1128,6.5106-6.1853c1.217-1.1674,2.6456-2.4479,1.7466-4.2648c-0.8725-1.7631-2.6077-2.4814-4.6364-2.2164
		c-5.6863,0.7427-10.9691,2.3673-15.5479,6.0919c-5.1839,4.2169-8.6464,4.1874-13.7826-0.0977
		c-2.9114-2.4289-6.0357-4.777-7.647-8.427c-0.9833-2.2275-3.9615-4.336-0.761-6.9197c2.9234-2.3599,5.9335-4.3195,9.5582-0.846
		c1.8207,1.7448,3.9808,2.6104,6.825,1.967c3.425-0.7747,5.9655,1.7181,8.4536,3.5883c2.2168,1.6663,4.1832,1.9332,6.894,1.0508
		c10.8939-3.546,22.4037-2.4435,33.5992-3.8912c10.3369-1.3368,20.9363-0.6927,31.4214-0.8125
		c5.9703-0.0682,11.1769,1.6367,14.5226,7.0753c1.0231,1.6631,2.5621,2.4086,4.4792,2.8223
		c11.5337,2.4883,23.0396,5.1057,34.5657,7.6297c3.6217,0.793,7.7361,0.9147,6.0313,6.6325
		c-0.4382,1.4695,1.0305,1.9484,2.2216,2.0448c7.3661,0.5963,14.4644,2.4543,22.2123,0.4797
		c4.4747-1.1404,11.0348-2.3882,14.8328,3.5374c1.1118,1.7345,5.4794,0.7739,4.5348,3.4738
		c-1.0751,3.0732-4.0543,0.2375-6.1593,0.1165c-16.6249-0.9566-32.7841-5.5262-49.419-6.4684
		c-0.9951-0.0564-1.9908-0.3054-2.9779-0.2644c-5.7336,0.2376-6.2044,1.0717-5.3049,6.5773
		c1.3875,8.4917,0.2307,16.9003-1.5712,25.2202c-1.1721,5.4125-2.3718,10.7379,1.1403,15.8488
		c0.6913,1.006,1.0928,2.6787-0.0871,3.7139c-1.3497,1.1844-2.98,0.5671-4.0649-0.4626c-1.9564-1.8571-3.8342-2.2263-6.3026-0.9923
		c-2.6787,1.3391-5.2947-0.3745-6.837-1.8881c-4.4414-4.3589-9.5219-3.0295-14.396-2.1576
		c-2.1916,0.3921-4.0614,0.1776-5.7003-0.6838c-2.9731-1.5622-5.5486-3.4282-9.2346-1.5787
		c-1.6522,0.829-3.3151-0.7856-3.7057-2.5057c-1.6103-7.0897-5.0343-13.258-9.0229-19.2314
		c-1.5172-2.2725-1.0859-5.1751-1.2575-7.8156c-0.1755-2.702-1.3546-4.0311-4.0694-4.7934
		c-13.2117-3.7101-26.1671-4.7635-39.7624-0.7687c-13.7073,4.0277-28.4327,3.204-42.3025,6.7847
		c-12.0891,3.121-24.8302,2.5985-36.6536,6.9698C777.2509,579.7241,776.717,579.4741,776.1793,579.3973z"/>
	<path d="M2150.4324,1387.2638c3.5076-4.1121,8.4685-6.4325,12.6431-9.6129c4.0752-3.1044,10.1545-2.5133,15.4595-0.8221
		c3.646,1.1621,7.2864,2.3716,10.9917,3.3131c10.4819,2.6637,19.3867-0.011,26.4355-8.2954
		c3.4441-4.0482,6.832-8.1544,10.0486-12.384c5.9072-7.7682,6.3245-18.0895,0.9172-25.7634
		c-0.3315,2.4149-0.5369,4.4956-0.925,6.5415c-0.2795,1.474-0.7236,3.2336-2.4509,3.4003
		c-1.9739,0.1908-2.0562-1.7948-2.5752-3.1306c-0.9954-2.5603-0.3398-5.5942-2.1682-8.3441
		c-1.9199,2.7751-1.0303,5.8792-2.3203,8.3256c-0.7971,1.5116-1.1282,4.0542-3.3899,3.6488
		c-1.8079-0.3237-1.6934-2.6135-1.9541-4.2123c-0.262-1.6035,0.4502-3.327-0.7566-5.142c-2.2073,1.1141-2.5342,3.7146-4.105,5.2483
		c-0.7642,0.7461-1.5054,1.3678-2.5901,1.0458c-0.9775-0.2903-1.2095-1.2692-1.032-2.0426
		c1.7935-7.8129-2.5112-15.1407-1.5293-23.0391c0.9343-7.5155,3.8765-10.7717,10.8777-8.3119
		c13.6936,4.8112,28.0396,7.0294,41.8831,11.2174c14.9343,4.5181,24.6294,14.4943,30.8833,28.3344
		c0.6157,1.3624,1.1858,2.7689,1.5645,4.2107c1.2798,4.8723,3.698,7.3041,9.313,6.0836c4.1365-0.899,8.1335,1.183,11.9304,2.8525
		c2.5132,1.1052,2.7664,3.5737,1.7129,5.5392c-2.2781,4.2509-0.3423,6.342,3.1582,8.337c1.8677,1.0646,4.9734,2.0093,0.7725,5.0164
		c-2.5132,1.799,0.645,3.9321,2.4871,4.4717c7.3149,2.1421,14.6594,4.493,22.4675,3.5146c5.4526-0.6832,10.5923,0.38,15.5176,2.618
		c1.3572,0.6167,2.8069,1.6063,2.4014,3.3826c-0.5002,2.193-2.3186,0.986-3.675,1.2003
		c-10.5203,1.662-20.2961-2.5193-30.4431-3.7189c-1.4705-0.1738-3.1069-0.8376-4.25,0.46c-1.3203,1.499-0.366,3.1559,0.2563,4.6793
		c0.8767,2.1469,1.9946,4.2108,2.697,6.41c1.2434,3.8929-4.1455,11.3595-8.1213,11.0605c-2.3362-0.1755-2.8147-2.8203-3.3997-4.5112
		c-2.0735-5.9972-4.6699-11.6741-7.8413-17.1892c-2.8086-4.884-6.4717-7.2391-12.1016-6.9211
		c-6.1575,0.3478-12.3025,0.8521-18.2454,2.4756c-12.4685,3.4064-24.6384,3.0538-36.564-2.1566
		c-1.8398-0.804-3.7256-1.5803-5.7864-1.1388c-15.7466,3.3733-31.5957,3.2675-47.6111,2.4139
		c-9.1958-0.4902-18.4609,1.9375-27.79,1.2588C2152.2922,1387.5195,2151.2791,1388.1261,2150.4324,1387.2638z M2313.4114,1406.3339
		c-0.0969,0.755-0.2986,1.2615-0.1736,1.6674c0.1121,0.3629,0.584,0.6149,0.897,0.9158c0.0969-0.4172,0.3433-0.8724,0.25-1.2418
		C2314.2813,1407.2651,2313.8679,1406.9333,2313.4114,1406.3339z"/>
	<path d="M1747.9127,1135.8273c9.8173,2.0476,19.6301,0.556,29.2645-0.8646c11.1039-1.6375,18.1268-9.8716,24.8162-18.0756
		c1.2357-1.5155,0.145-2.6154-1.2534-2.9716c-2.2417-0.5708-4.5801-1.1746-6.859-1.1104c-7.4523,0.21-14.8987,0.6737-22.3419,1.1292
		c-2.7261,0.1667-5.4165,0.256-7.5081-1.8103c-6.088-6.0143-11.4874-12.5212-14.1583-20.8585
		c-0.4869-1.5199-1.634-3.3107,0.0764-4.5427c1.3086-0.9425,3.082-1.2258,4.7426-0.3263c1.1608,0.6289,2.6453,0.9425,3.4677,1.8606
		c2.4497,2.7345,4.4858,5.1489,9.0518,4.2493c2.9749-0.5862,5.0072,2.8901,7.0255,5.0334c1.6431,1.7448,3.076,2.8092,5.5793,1.5807
		c1.2651-0.6208,3.3029-1.2036,4.2126,0.1687c2.8191,4.2521,6.3527,2.2667,9.8333,1.5898
		c5.0637-0.9846,10.1362-1.9318,15.2233-2.7858c3.2095-0.5391,6.6215-0.407,9.0735,1.7206
		c3.7941,3.2919,8.1613,3.6028,12.6212,3.2399c6.7023-0.5454,12.8319,1.1981,18.9111,3.6406
		c13.1682,5.2913,26.6135,9.4194,40.974,9.8132c4.099,0.1124,7.4655,2.7004,11.2578,3.9259
		c8.4935,2.7444,16.7178,2.5117,25.182-0.4248c4.7783-1.6577,9.8961-3.1522,15.1467-1.4579
		c1.5536,0.5013,3.8442,0.7297,3.7635,2.6136c-0.0775,1.8066-2.2867,1.7682-3.8855,2.2869
		c-11.2617,3.6548-22.7135,1.4606-34.0934,1.3975c-2.6649-0.0149-5.3408-0.1798-7.9929-0.0006
		c-10.1084,0.6833-15.2722,9.072-11.4399,18.4656c0.499,1.2233,1.4523,2.5408,0.5747,3.7516
		c-0.9545,1.3168-2.3792,0.4038-3.6643,0.1935c-13.7233-2.2462-27.327-7.7449-41.3831-1.583
		c-1.3474,0.5906-2.9333,0.2926-3.5663-0.9607c-1.8004-3.5638-4.7605-3.3787-8.0521-3.2582
		c-2.8004,0.1025-5.8004,0.016-8.4117-0.8711c-12.7679-4.337-25.5698-2.731-38.448-0.8687c-12.819,1.854-25.7974,2.153-38.47,5.6317
		c-8.3998,2.3058-17.4456-0.667-26.0648,1.7188c-0.3669-2.4529,1.0211-2.5935,1.9965-3.0476
		c4.7903-2.23,9.7568-3.9229,14.0426-7.3629c2.9961-2.4052,7.1086-2.6401,10.8928-0.718
		C1748.0554,1135.9431,1747.9127,1135.8273,1747.9127,1135.8273z"/>
	<polygon points="2303.6858,1219.2267 2303.8909,1218.9845 2304.0066,1219.2811 	"/>
	<path d="M1379.4257,360.5471c0.2668,0.0683,0.5336,0.1366,0.8004,0.205c-0.2755-0.0629-0.551-0.1258-0.8328-0.1884
		C1379.387,360.564,1379.4257,360.5471,1379.4257,360.5471z"/>
</g>
</svg>
