<?xml version="1.0" standalone="no"?>
<!DOCTYPE svg PUBLIC "-//W3C//DTD SVG 20010904//EN"
 "http://www.w3.org/TR/2001/REC-SVG-20010904/DTD/svg10.dtd">
<svg version="1.0" xmlns="http://www.w3.org/2000/svg"
 width="423.298028pt" height="398.516135pt" viewBox="0 0 423.298028 398.516135"
 preserveAspectRatio="xMidYMid meet">
<metadata>
Created by potrace 1.12, written by Peter Selinger 2001-2015
</metadata>
<g transform="translate(-14.023526,415.768099) scale(0.100000,-0.100000)"
fill="#ffffff" stroke="none">
<path d="M965 4141 c-77 -31 -163 -83 -205 -123 -58 -56 -80 -107 -80 -191 0
-65 -3 -73 -47 -142 -27 -40 -53 -81 -60 -92 -11 -16 -12 -15 -12 10 -2 75
-62 156 -168 227 -70 47 -77 50 -87 33 -6 -10 -10 -67 -10 -128 0 -94 3 -117
22 -156 30 -60 57 -85 125 -113 l55 -22 -18 -42 c-10 -23 -27 -67 -36 -97
l-18 -56 -16 42 c-9 23 -37 62 -61 86 -43 44 -170 123 -198 123 -20 0 -10
-200 14 -260 31 -78 94 -130 179 -145 26 -5 36 -12 32 -21 -28 -72 -59 -408
-50 -525 5 -60 3 -87 -11 -125 -10 -27 -22 -53 -27 -58 -17 -20 -7 -28 26 -22
l34 6 7 -47 c10 -71 64 -226 82 -240 24 -18 51 -16 62 6 7 13 5 33 -10 71 -27
71 -60 211 -52 223 10 16 163 1 221 -21 135 -52 224 -181 301 -432 11 -36 41
-144 66 -240 124 -471 222 -681 411 -879 105 -111 190 -173 328 -240 332 -162
754 -197 1371 -115 l120 16 95 -52 c432 -233 624 -277 772 -177 53 35 61 57
23 57 -33 0 -32 12 4 28 37 16 140 103 140 120 1 8 -14 12 -44 12 l-44 0 69
70 c39 38 70 76 70 84 0 12 -17 16 -82 18 l-81 3 50 31 c55 34 91 76 128 149
24 48 24 75 1 56 -24 -20 -247 -71 -360 -82 -245 -25 -507 33 -809 179 l-79
38 81 33 c114 47 250 130 356 216 100 82 335 315 335 333 0 15 3 15 -100 -4
-89 -17 -328 -23 -369 -10 -21 7 -17 12 47 46 162 88 323 211 490 372 71 70
94 98 78 98 -2 0 -46 -11 -98 -25 -117 -30 -244 -53 -328 -59 l-65 -5 26 22
c15 12 69 52 120 89 93 67 215 154 397 286 126 90 148 109 140 117 -4 4 -71
-5 -150 -19 -79 -14 -170 -28 -203 -31 -33 -3 -71 -8 -85 -11 -21 -4 -20 -2
10 17 72 44 197 149 265 220 92 98 130 145 204 256 56 84 70 113 56 113 -7 0
-441 -108 -470 -117 -10 -3 8 17 40 44 140 116 216 224 316 450 67 150 75 173
63 173 -4 0 -448 -167 -628 -236 -12 -5 1 19 35 64 66 86 102 151 123 222 22
75 20 199 -4 288 -23 82 -75 192 -91 192 -5 0 -9 -6 -7 -13 4 -17 -255 -382
-375 -528 -104 -126 -224 -232 -352 -307 l-70 -42 -9 55 c-10 57 -18 65 -45
41 -9 -8 -41 -24 -71 -36 -30 -12 -70 -30 -89 -41 -18 -11 -36 -18 -38 -15 -3
3 17 54 45 113 59 126 72 169 72 239 0 58 -9 114 -19 114 -3 0 -47 -38 -96
-85 -50 -47 -102 -95 -117 -106 l-28 -20 0 32 c0 18 7 70 16 115 12 65 13 96
5 139 -15 79 -97 222 -117 202 -3 -3 -16 -59 -29 -124 -54 -270 -114 -406
-348 -783 -125 -200 -219 -391 -269 -545 l-42 -130 -95 98 c-243 251 -433 381
-604 415 -89 18 -176 9 -258 -26 -65 -28 -202 -135 -249 -195 -23 -28 -55 -62
-71 -75 l-29 -23 0 63 c0 77 15 214 36 329 l16 87 45 -26 c67 -37 132 -35 217
7 67 33 187 133 174 146 -19 20 -152 58 -219 62 -62 5 -83 2 -122 -15 -26 -12
-47 -17 -47 -12 0 21 63 170 72 170 5 0 22 -9 37 -19 15 -11 48 -25 73 -31 60
-15 133 5 214 59 65 44 131 107 121 117 -3 3 -36 17 -74 31 -89 33 -204 41
-257 19 -33 -14 -37 -14 -32 -1 11 29 88 136 99 139 7 2 32 9 55 16 118 32
199 189 190 366 l-3 62 -40 -17z"/>
</g>
</svg>
